<?xml version="1.0" encoding="UTF-8" standalone="no"?>
<!DOCTYPE svg PUBLIC "-//W3C//DTD SVG 1.1//EN" "http://www.w3.org/Graphics/SVG/1.1/DTD/svg11.dtd">
<!-- Created with Vectornator (http://vectornator.io/) -->
<svg height="100%" stroke-miterlimit="10" style="fill-rule:nonzero;clip-rule:evenodd;stroke-linecap:round;stroke-linejoin:round;" version="1.1" viewBox="0 0 195.821 180.481" width="100%" xml:space="preserve" xmlns="http://www.w3.org/2000/svg" xmlns:vectornator="http://vectornator.io" xmlns:xlink="http://www.w3.org/1999/xlink">
<defs/>
<g id="layer1" vectornator:layerName="layer1">
<g opacity="1" vectornator:layerName="Group 1">
<path d="M58.3683 151.763C58.3683 149.774 58.5492 148.161 58.7723 148.161C58.9955 148.161 59.1764 149.774 59.1764 151.763C59.1764 153.753 58.9955 155.366 58.7723 155.366C58.5492 155.366 58.3683 153.753 58.3683 151.763Z" fill="#999999" fill-rule="nonzero" opacity="0.5" stroke="#1a1a1a" stroke-linecap="round" stroke-linejoin="miter" stroke-width="2.00025" vectornator:layerName="ellipse"/>
<path d="M130.945 161.27L144.94 154.248L144.94 138.625L130.945 145.648L130.945 161.27ZM130.945 143.968L144.94 136.946L144.94 121.324L130.945 128.345L130.945 143.968ZM112.973 86.9512L98.8968 79.9335L84.9024 86.9553L98.9781 93.9727L112.973 86.9512ZM97.4585 94.7362L83.3816 87.7186L69.387 94.7404L83.4639 101.758L97.4585 94.7362ZM114.604 101.763L128.599 94.7404L114.513 87.7186L100.518 94.7404L114.604 101.763ZM85.0039 102.525L99.0901 109.548L113.085 102.525L98.9985 95.5039L85.0039 102.525ZM130.13 95.5039L116.135 102.525L130.222 109.547L144.216 102.525L130.13 95.5039ZM67.8629 95.5039L53.8683 102.525L67.9453 109.543L81.9399 102.522L67.8629 95.5039ZM83.4791 103.289L69.4845 110.311L83.5705 117.334L97.5651 110.311L83.4791 103.289ZM99.9156 176.841L113.91 169.819L113.91 154.197L99.9156 161.218L99.9156 176.841ZM99.9156 159.538L113.91 152.516L113.91 136.894L99.9156 143.916L99.9156 159.538ZM99.0992 111.074L85.1046 118.096L99.1908 125.118L113.185 118.096L99.0992 111.074ZM53.0571 154.248L67.134 161.266L67.134 145.644L53.0571 138.626L53.0571 154.248ZM53.0571 136.946L67.134 143.963L67.134 128.341L53.0571 121.324L53.0571 136.946ZM53.0571 119.566L67.134 126.584L67.134 110.961L53.0571 103.944L53.0571 119.566ZM68.6742 162.034L82.7602 169.055L82.7602 153.433L68.6742 146.411L68.6742 162.034ZM68.6742 144.731L82.7602 151.754L82.7602 136.131L68.6742 129.109L68.6742 144.731ZM68.6742 127.351L82.7602 134.373L82.7602 118.75L68.6742 111.729L68.6742 127.351ZM84.2904 169.819L98.3764 176.841L98.3764 161.218L84.2904 154.197L84.2904 169.819ZM84.2904 152.516L98.3764 159.538L98.3764 143.916L84.2904 136.894L84.2904 152.516ZM84.2904 135.136L98.3764 142.158L98.3764 126.536L84.2904 119.514L84.2904 135.136ZM115.43 169.055L129.424 162.034L129.424 146.41L115.43 153.433L115.43 169.055ZM115.43 151.753L129.424 144.731L129.424 129.109L115.43 136.131L115.43 151.753ZM114.615 103.289L100.62 110.311L114.706 117.332L128.701 110.311L114.615 103.289ZM130.945 111.196L130.945 126.818L144.94 119.797L144.94 104.174L130.945 111.196ZM99.9156 142.158L113.91 135.136L113.91 119.514L99.9156 126.536L99.9156 142.158ZM115.43 134.604L129.424 127.582L129.424 111.96L115.43 118.981L115.43 134.604Z" fill="#70bf4f" fill-rule="nonzero" opacity="1" stroke="none" vectornator:layerName="path"/>
<path d="M83.6613 87.57L97.656 80.5482L97.656 64.9249L83.6613 71.9477L83.6613 87.57ZM83.6613 70.2674L97.656 63.2456L97.656 47.6235L83.6613 54.6451L83.6613 70.2674ZM65.6888 13.251L51.6128 6.23335L37.6185 13.2551L51.6942 20.2726L65.6888 13.251ZM50.1746 21.0361L36.0976 14.0184L22.103 21.0402L36.1799 28.0579L50.1746 21.0361ZM67.3204 28.063L81.315 21.0402L67.229 14.0184L53.2344 21.0402L67.3204 28.063ZM37.7199 28.8253L51.8062 35.8481L65.8008 28.8253L51.7145 21.8037L37.7199 28.8253ZM82.8462 21.8037L68.8515 28.8253L82.9375 35.8471L96.9322 28.8253L82.8462 21.8037ZM20.579 21.8037L6.58435 28.8253L20.6613 35.8429L34.6559 28.8213L20.579 21.8037ZM36.1951 29.5888L22.2005 36.6105L36.2865 43.6333L50.2811 36.6105L36.1951 29.5888ZM52.6316 103.14L66.6262 96.1186L66.6262 80.4965L52.6316 87.5181L52.6316 103.14ZM52.6316 85.8377L66.6262 78.8159L66.6262 63.1939L52.6316 70.2154L52.6316 85.8377ZM51.8152 37.3741L37.8206 44.3956L51.9069 51.4174L65.9012 44.3956L51.8152 37.3741ZM5.77308 80.5482L19.85 87.5658L19.85 71.9438L5.77308 64.9262L5.77308 80.5482ZM5.77308 63.2456L19.85 70.2632L19.85 54.6411L5.77308 47.6235L5.77308 63.2456ZM5.77308 45.8657L19.85 52.8834L19.85 37.2611L5.77308 30.2434L5.77308 45.8657ZM21.3902 88.3335L35.4762 95.3551L35.4762 79.733L21.3902 72.7112L21.3902 88.3335ZM21.3902 71.0309L35.4762 78.0534L35.4762 62.4304L21.3902 55.4085L21.3902 71.0309ZM21.3902 53.6508L35.4762 60.6726L35.4762 45.0503L21.3902 38.0287L21.3902 53.6508ZM37.0064 96.1186L51.0924 103.14L51.0924 87.5181L37.0064 80.4965L37.0064 96.1186ZM37.0064 78.8159L51.0924 85.8377L51.0924 70.2154L37.0064 63.1939L37.0064 78.8159ZM37.0064 61.4361L51.0924 68.4576L51.0924 52.8356L37.0064 45.8138L37.0064 61.4361ZM68.1461 95.3551L82.1405 88.3335L82.1405 72.7102L68.1461 79.733L68.1461 95.3551ZM68.1461 78.0524L82.1405 71.0309L82.1405 55.4085L68.1461 62.4304L68.1461 78.0524ZM67.3307 29.5888L53.3361 36.6105L67.4221 43.6321L81.4167 36.6105L67.3307 29.5888ZM83.6613 37.4961L83.6613 53.1181L97.656 46.0965L97.656 30.4742L83.6613 37.4961ZM52.6316 68.4576L66.6262 61.4361L66.6262 45.8138L52.6316 52.8356L52.6316 68.4576ZM68.1461 60.9034L82.1405 53.8816L82.1405 38.2595L68.1461 45.2811L68.1461 60.9034Z" fill="#ff7e27" fill-rule="nonzero" opacity="1" stroke="none" vectornator:layerName="path"/>
<path d="M69.6162 76.8147C69.6162 61.591 81.9574 49.2498 97.181 49.2498C112.405 49.2498 124.746 61.591 124.746 76.8147C124.746 92.0383 112.405 104.38 97.181 104.38C81.9574 104.38 69.6162 92.0383 69.6162 76.8147Z" fill="#ec0014" fill-rule="nonzero" opacity="1" stroke="#ffffff" stroke-linecap="round" stroke-linejoin="miter" stroke-width="5" vectornator:layerName="Oval 1"/>
<path d="M176.053 84.9772L190.048 77.9554L190.048 62.3321L176.053 69.3549L176.053 84.9772ZM176.053 67.6745L190.048 60.6527L190.048 45.0307L176.053 52.0522L176.053 67.6745ZM158.081 10.6581L144.005 3.64048L130.011 10.6623L144.086 17.6797L158.081 10.6581ZM142.567 18.4432L128.49 11.4255L114.495 18.4473L128.572 25.465L142.567 18.4432ZM159.713 25.4702L173.707 18.4473L159.621 11.4255L145.627 18.4473L159.713 25.4702ZM130.112 26.2324L144.198 33.2552L158.193 26.2324L144.107 19.2109L130.112 26.2324ZM175.238 19.2109L161.244 26.2324L175.33 33.2542L189.324 26.2324L175.238 19.2109ZM112.971 19.2109L98.9765 26.2324L113.053 33.25L127.048 26.2285L112.971 19.2109ZM128.587 26.9959L114.593 34.0177L128.679 41.0405L142.673 34.0177L128.587 26.9959ZM145.024 100.548L159.018 93.5258L159.018 77.9037L145.024 84.9252L145.024 100.548ZM145.024 83.2449L159.018 76.2231L159.018 60.601L145.024 67.6226L145.024 83.2449ZM144.207 34.7812L130.213 41.8028L144.299 48.8246L158.293 41.8028L144.207 34.7812ZM98.1652 77.9554L112.242 84.973L112.242 69.351L98.1652 62.3333L98.1652 77.9554ZM98.1652 60.6527L112.242 67.6704L112.242 52.0483L98.1652 45.0307L98.1652 60.6527ZM98.1652 43.2729L112.242 50.2905L112.242 34.6683L98.1652 27.6506L98.1652 43.2729ZM113.782 85.7407L127.868 92.7622L127.868 77.1402L113.782 70.1184L113.782 85.7407ZM113.782 68.438L127.868 75.4606L127.868 59.8375L113.782 52.8157L113.782 68.438ZM113.782 51.0579L127.868 58.0798L127.868 42.4575L113.782 35.4359L113.782 51.0579ZM129.399 93.5258L143.485 100.548L143.485 84.9252L129.399 77.9037L129.399 93.5258ZM129.399 76.2231L143.485 83.2449L143.485 67.6226L129.399 60.601L129.399 76.2231ZM129.399 58.8432L143.485 65.8648L143.485 50.2428L129.399 43.2209L129.399 58.8432ZM160.538 92.7622L174.533 85.7407L174.533 70.1174L160.538 77.1402L160.538 92.7622ZM160.538 75.4596L174.533 68.438L174.533 52.8157L160.538 59.8375L160.538 75.4596ZM159.723 26.9959L145.728 34.0177L159.814 41.0393L173.809 34.0177L159.723 26.9959ZM176.053 34.9032L176.053 50.5253L190.048 43.5037L190.048 27.8814L176.053 34.9032ZM145.024 65.8648L159.018 58.8432L159.018 43.2209L145.024 50.2428L145.024 65.8648ZM160.538 58.3106L174.533 51.2888L174.533 35.6667L160.538 42.6883L160.538 58.3106Z" fill="#1991e8" fill-rule="nonzero" opacity="1" stroke="none" vectornator:layerName="path"/>
</g>
</g>
</svg>
