<?xml version="1.0" encoding="UTF-8" standalone="no"?>
<!DOCTYPE svg PUBLIC "-//W3C//DTD SVG 1.1//EN" "http://www.w3.org/Graphics/SVG/1.1/DTD/svg11.dtd">
<!-- Created with Vectornator (http://vectornator.io/) -->
<svg height="100%" stroke-miterlimit="10" style="fill-rule:nonzero;clip-rule:evenodd;stroke-linecap:round;stroke-linejoin:round;" version="1.1" viewBox="0 0 2000 500" width="100%" xml:space="preserve" xmlns="http://www.w3.org/2000/svg" xmlns:xlink="http://www.w3.org/1999/xlink">
<defs/>
<g id="layer1">
<path d="M318.363 402.743L348.75 387.496L348.75 353.575L318.363 368.824L318.363 402.743ZM318.363 365.176L348.75 349.93L348.75 316.01L318.363 331.255L318.363 365.176ZM279.342 241.379L248.779 226.142L218.394 241.388L248.956 256.624L279.342 241.379ZM245.657 258.282L215.092 243.045L184.706 258.291L215.271 273.528L245.657 258.282ZM282.884 273.539L313.27 258.291L282.685 243.045L252.299 258.291L282.884 273.539ZM218.614 275.193L249.198 290.442L279.585 275.193L248.999 259.949L218.614 275.193ZM316.594 259.949L286.207 275.193L316.793 290.44L347.178 275.193L316.594 259.949ZM181.397 259.949L151.011 275.193L181.576 290.431L211.962 275.187L181.397 259.949ZM215.304 276.852L184.918 292.098L215.502 307.347L245.887 292.098L215.304 276.852ZM250.991 436.551L281.376 421.305L281.376 387.386L250.991 402.63L250.991 436.551ZM250.991 398.983L281.376 383.736L281.376 349.817L250.991 365.063L250.991 398.983ZM249.218 293.755L218.833 309.002L249.417 324.248L279.802 309.002L249.218 293.755ZM149.25 387.496L179.814 402.734L179.814 368.815L149.25 353.577L149.25 387.496ZM149.25 349.93L179.814 365.165L179.814 331.246L149.25 316.01L149.25 349.93ZM149.25 312.194L179.814 327.431L179.814 293.51L149.25 278.274L149.25 312.194ZM183.158 404.402L213.742 419.646L213.742 385.727L183.158 370.481L183.158 404.402ZM183.158 366.833L213.742 382.081L213.742 348.16L183.158 332.914L183.158 366.833ZM183.158 329.097L213.742 344.343L213.742 310.422L183.158 295.177L183.158 329.097ZM217.065 421.305L247.649 436.551L247.649 402.63L217.065 387.386L217.065 421.305ZM217.065 383.736L247.649 398.983L247.649 365.063L217.065 349.817L217.065 383.736ZM217.065 346L247.649 361.246L247.649 327.327L217.065 312.081L217.065 346ZM284.676 419.646L315.062 404.402L315.062 370.478L284.676 385.727L284.676 419.646ZM284.676 382.079L315.062 366.833L315.062 332.914L284.676 348.16L284.676 382.079ZM282.907 276.852L252.52 292.098L283.105 307.343L313.491 292.098L282.907 276.852ZM318.363 294.02L318.363 327.94L348.75 312.695L348.75 278.774L318.363 294.02ZM250.991 361.246L281.376 346L281.376 312.081L250.991 327.327L250.991 361.246ZM284.676 344.845L315.061 329.598L315.061 295.679L284.676 310.923L284.676 344.845Z" fill="#94e2d5" fill-rule="nonzero" opacity="1" stroke="none"/>
<path d="M218.614 240.052L249 224.806L249 190.884L218.614 206.132L218.614 240.052ZM218.614 202.484L249 187.238L249 153.318L218.614 168.564L218.614 202.484ZM179.592 78.6875L149.029 63.4504L118.644 78.6962L149.205 93.9333L179.592 78.6875ZM145.906 95.5907L115.342 80.3536L84.9564 95.6L115.521 110.837L145.906 95.5907ZM183.134 110.848L213.52 95.6L182.935 80.3536L152.55 95.6L183.134 110.848ZM118.863 112.503L149.449 127.751L179.835 112.503L149.25 97.2574L118.863 112.503ZM216.844 97.2574L186.458 112.503L217.042 127.749L247.428 112.503L216.844 97.2574ZM81.6471 97.2574L51.2618 112.503L81.8262 127.74L112.212 112.495L81.6471 97.2574ZM115.554 114.161L85.1682 129.407L115.752 144.655L146.138 129.407L115.554 114.161ZM151.241 273.858L181.627 258.613L181.627 224.694L151.241 239.939L151.241 273.858ZM151.241 236.291L181.627 221.045L181.627 187.126L151.241 202.371L151.241 236.291ZM149.469 131.064L119.083 146.31L149.667 161.556L180.052 146.31L149.469 131.064ZM49.5 224.806L80.0644 240.043L80.0644 206.124L49.5 190.887L49.5 224.806ZM49.5 187.238L80.0644 202.475L80.0644 168.555L49.5 153.318L49.5 187.238ZM49.5 149.502L80.0644 164.739L80.0644 130.819L49.5 115.582L49.5 149.502ZM83.4083 241.71L113.992 256.956L113.992 223.036L83.4083 207.79L83.4083 241.71ZM83.4083 204.142L113.992 219.389L113.992 185.468L83.4083 170.222L83.4083 204.142ZM83.4083 166.405L113.992 181.651L113.992 147.732L83.4083 132.486L83.4083 166.405ZM117.315 258.613L147.899 273.858L147.899 239.939L117.315 224.694L117.315 258.613ZM117.315 221.045L147.899 236.291L147.899 202.371L117.315 187.126L117.315 221.045ZM117.315 183.309L147.899 198.554L147.899 164.635L117.315 149.389L117.315 183.309ZM184.927 256.956L215.312 241.71L215.312 207.788L184.927 223.036L184.927 256.956ZM184.927 219.387L215.312 204.142L215.312 170.222L184.927 185.468L184.927 219.387ZM183.156 114.161L152.771 129.407L183.355 144.652L213.741 129.407L183.156 114.161ZM218.614 131.329L218.614 165.249L249 150.003L249 116.084L218.614 131.329ZM151.241 198.554L181.627 183.309L181.627 149.389L151.241 164.635L151.241 198.554ZM184.927 182.152L215.312 166.907L215.312 132.987L184.927 148.232L184.927 182.152Z" fill="#eba0ac" fill-rule="nonzero" opacity="1" stroke="none"/>
<path d="M418.114 240.051L448.5 224.805L448.5 190.882L418.114 206.131L418.114 240.051ZM418.114 202.482L448.5 187.236L448.5 153.317L418.114 168.562L418.114 202.482ZM379.092 78.6857L348.53 63.4485L318.145 78.6949L348.706 93.9315L379.092 78.6857ZM345.407 95.5889L314.843 80.3517L284.456 95.5981L315.021 110.835L345.407 95.5889ZM382.635 110.846L413.02 95.5981L382.435 80.3517L352.051 95.5981L382.635 110.846ZM318.365 112.501L348.949 127.75L379.335 112.501L348.751 97.2562L318.365 112.501ZM416.344 97.2562L385.959 112.501L416.544 127.747L446.928 112.501L416.344 97.2562ZM281.147 97.2562L250.762 112.501L281.325 127.738L311.712 112.493L281.147 97.2562ZM315.054 114.159L284.669 129.405L315.253 144.653L345.638 129.405L315.054 114.159ZM350.742 273.858L381.126 258.612L381.126 224.692L350.742 239.938L350.742 273.858ZM350.742 236.289L381.126 221.043L381.126 187.124L350.742 202.369L350.742 236.289ZM348.968 131.063L318.584 146.308L349.168 161.555L379.552 146.308L348.968 131.063ZM249 224.805L279.564 240.041L279.564 206.123L249 190.885L249 224.805ZM249 187.236L279.564 202.473L279.564 168.554L249 153.317L249 187.236ZM249 149.5L279.564 164.737L279.564 130.818L249 115.581L249 149.5ZM282.908 241.708L313.492 256.954L313.492 223.034L282.908 207.789L282.908 241.708ZM282.908 204.14L313.492 219.388L313.492 185.466L282.908 170.22L282.908 204.14ZM282.908 166.403L313.492 181.65L313.492 147.73L282.908 132.485L282.908 166.403ZM316.817 258.612L347.401 273.858L347.401 239.938L316.817 224.692L316.817 258.612ZM316.817 221.043L347.401 236.289L347.401 202.369L316.817 187.124L316.817 221.043ZM316.817 183.307L347.401 198.553L347.401 164.634L316.817 149.387L316.817 183.307ZM384.427 256.954L414.814 241.708L414.814 207.786L384.427 223.034L384.427 256.954ZM384.427 219.385L414.814 204.14L414.814 170.22L384.427 185.466L384.427 219.385ZM382.658 114.159L352.271 129.405L382.855 144.651L413.242 129.405L382.658 114.159ZM418.114 131.327L418.114 165.247L448.5 150.002L448.5 116.082L418.114 131.327ZM350.742 198.553L381.126 183.307L381.126 149.387L350.742 164.634L350.742 198.553ZM384.427 182.151L414.814 166.905L414.814 132.985L384.427 148.231L384.427 182.151Z" fill="#89b4fa" fill-rule="nonzero" opacity="1" stroke="none"/>
<g opacity="1">
<path d="M688.195 304.325L698.616 304.325L692.32 395.947L448.5 395.947L448.5 385.96L454.579 385.96C469.198 385.96 478.643 384.006 482.913 380.098C487.183 376.19 489.897 371.232 491.055 365.226C492.212 359.219 492.791 343.912 492.791 319.306L492.791 174.924C492.791 152.489 492.176 137.725 490.946 130.633C489.716 123.54 486.893 118.583 482.478 115.76C478.064 112.938 468.764 111.527 454.579 111.527L454.579 101.539L664.964 101.539L671.911 174.924L661.707 174.924C657.075 154.371 651.394 139.788 644.663 131.176C637.933 122.563 629.936 117.136 620.672 114.892C611.409 112.649 596.5 111.527 575.946 111.527L535.129 111.527L535.129 235.065L566.393 235.065C580.723 235.065 590.747 233.835 596.464 231.374C602.181 228.914 605.945 225.186 607.754 220.193C609.563 215.199 610.468 205.465 610.468 190.991L620.672 190.991L620.672 291.732L610.468 291.732C610.468 275.376 609.093 264.412 606.343 258.839C603.592 253.267 599.576 249.648 594.293 247.984C589.01 246.319 580.072 245.487 567.479 245.487L535.129 245.487L535.129 315.181C535.129 350.064 537.372 370.581 541.859 376.733C546.346 382.884 558.433 385.96 578.118 385.96L600.046 385.96C615.534 385.96 628.271 383.97 638.258 379.989C648.246 376.009 657.763 367.831 666.809 355.455C675.856 343.08 682.984 326.036 688.195 304.325Z" fill="#cdd6f4" fill-rule="nonzero" opacity="1" stroke="none"/>
</g>
<g opacity="1">
<path d="M1735.73 336.562L1743.63 336.562L1738.85 406.015L1554.03 406.015L1554.03 398.445L1558.64 398.445C1569.72 398.445 1576.88 396.963 1580.11 394.001C1583.35 391.038 1585.41 387.28 1586.29 382.727C1587.16 378.174 1587.6 366.57 1587.6 347.918L1587.6 238.471C1587.6 221.464 1587.14 210.272 1586.2 204.896C1585.27 199.52 1583.13 195.762 1579.78 193.622C1576.44 191.483 1569.39 190.413 1558.64 190.413L1558.64 182.842L1718.12 182.842L1723.38 238.471L1715.65 238.471C1712.14 222.89 1707.83 211.836 1702.73 205.308C1697.63 198.779 1691.56 194.665 1684.54 192.964C1677.52 191.263 1666.22 190.413 1650.64 190.413L1619.7 190.413L1619.7 284.06L1643.4 284.06C1654.26 284.06 1661.86 283.127 1666.19 281.262C1670.52 279.397 1673.38 276.572 1674.75 272.786C1676.12 269.001 1676.81 261.622 1676.81 250.65L1684.54 250.65L1684.54 327.016L1676.81 327.016C1676.81 314.617 1675.76 306.306 1673.68 302.082C1671.59 297.857 1668.55 295.114 1664.54 293.853C1660.54 292.591 1653.76 291.96 1644.22 291.96L1619.7 291.96L1619.7 344.791C1619.7 371.234 1621.4 386.787 1624.8 391.45C1628.2 396.113 1637.36 398.445 1652.28 398.445L1668.91 398.445C1680.65 398.445 1690.3 396.936 1697.87 393.919C1705.44 390.901 1712.66 384.702 1719.51 375.321C1726.37 365.94 1731.78 353.02 1735.73 336.562Z" fill="#cdd6f4" fill-rule="nonzero" opacity="1" stroke="none"/>
</g>
<g opacity="1">
<path d="M876.495 297.778L773.332 297.778L766.321 315.005C755.905 339.978 750.697 356.27 750.697 363.882C750.697 372.028 753.468 378.204 759.01 382.411C764.552 386.618 771.663 388.721 780.343 388.721L780.343 397.935L699.616 397.935L699.616 388.721C711.635 386.851 720.583 382.611 726.459 376.001C732.335 369.391 739.412 355.469 747.692 334.235C748.36 332.232 751.565 324.487 757.307 310.999L836.231 122.502L844.044 122.502L934.786 338.242L947.206 366.686C950.01 373.096 953.783 378.138 958.524 381.81C963.264 385.483 970.376 387.786 979.857 388.721L979.857 397.935L873.089 397.935L873.089 388.721C886.177 388.721 895.024 387.753 899.631 385.816C904.238 383.88 906.542 380.041 906.542 374.298C906.542 371.36 903.47 362.613 897.327 348.057L876.495 297.778ZM873.089 288.764L825.014 172.982L777.138 288.764L873.089 288.764Z" fill="#cdd6f4" fill-rule="nonzero" opacity="1" stroke="none"/>
</g>
<g opacity="1">
<path d="M991.857 398.375L991.857 310.386L1001.95 310.386C1013.38 367.7 1040.49 396.357 1083.28 396.357C1102.52 396.357 1117.42 390.874 1127.98 379.91C1138.54 368.945 1143.82 356.668 1143.82 343.079C1143.82 329.356 1139.18 317.853 1129.89 308.57C1120.61 299.421 1103.66 289.6 1079.04 279.106C1057.11 269.688 1040.56 261.448 1029.39 254.384C1018.23 247.321 1009.52 238.139 1003.26 226.838C997.003 215.536 993.875 203.495 993.875 190.714C993.875 171.206 1000.64 154.96 1014.16 141.977C1027.68 128.994 1044.8 122.502 1065.52 122.502C1077.09 122.502 1087.99 124.386 1098.21 128.153C1108.44 131.92 1118.93 139.723 1129.69 151.563C1135.88 144.163 1139.38 136.158 1140.19 127.548L1149.07 127.548L1149.07 199.19L1140.19 199.19C1135.07 178.336 1126.03 161.922 1113.04 149.948C1100.06 137.974 1085.03 131.987 1067.94 131.987C1051.66 131.987 1039.72 136.394 1032.12 145.206C1024.52 154.018 1020.72 163.671 1020.72 174.165C1020.72 186.812 1025.49 197.508 1035.04 206.253C1044.46 215.133 1061.48 225.088 1086.1 236.121C1109.65 246.615 1126.77 255.057 1137.46 261.448C1148.16 267.838 1156.73 276.684 1163.19 287.986C1169.65 299.287 1172.88 312.337 1172.88 327.136C1172.88 350.546 1165.08 369.584 1149.47 384.248C1133.86 398.913 1113.01 406.246 1086.91 406.246C1056.91 406.246 1031.88 394.742 1011.84 371.736C1007.4 378.06 1004.1 386.939 1001.95 398.375L991.857 398.375Z" fill="#cdd6f4" fill-rule="nonzero" opacity="1" stroke="none"/>
</g>
<g opacity="1">
<path d="M1198 141.886L1198 132.603L1334.29 132.603L1334.29 141.886L1327.91 141.886C1313.26 141.886 1303.66 142.996 1299.11 145.216C1294.57 147.435 1291.53 151.572 1289.99 157.626C1288.45 163.68 1287.68 178.076 1287.68 200.812L1287.68 335.01C1287.68 356.535 1288.23 370.628 1289.33 377.287C1290.43 383.947 1293.36 388.891 1298.13 392.119C1302.89 395.348 1312.01 396.963 1325.49 396.963L1334.29 396.963L1334.29 406.246L1198 406.246L1198 396.963L1206.79 396.963C1219.54 396.963 1228.37 395.483 1233.28 392.523C1238.19 389.563 1241.3 384.956 1242.62 378.7C1243.94 372.444 1244.6 357.881 1244.6 335.01L1244.6 200.812C1244.6 179.017 1243.94 164.958 1242.62 158.635C1241.3 152.312 1238.37 147.94 1233.83 145.518C1229.28 143.097 1219.47 141.886 1204.37 141.886L1198 141.886Z" fill="#cdd6f4" fill-rule="nonzero" opacity="1" stroke="none"/>
</g>
<g opacity="1">
<path d="M1552.22 182.842L1554.03 238.528L1546.28 238.528C1544.75 226.337 1541.31 216.259 1535.99 208.296C1530.66 200.333 1525.09 195.363 1519.26 193.386C1513.44 191.409 1503.61 190.421 1489.77 190.421L1446.11 190.421L1446.11 285.153L1467.04 285.153C1480.55 285.153 1489.53 282.874 1493.98 278.316C1498.42 273.758 1500.65 264.614 1500.65 250.885L1508.89 250.885L1508.89 329.636L1500.65 329.636C1500.65 320.08 1499.69 312.529 1497.76 306.983C1495.84 301.436 1492.99 297.647 1489.2 295.615C1485.41 293.583 1478.02 292.567 1467.04 292.567L1446.11 292.567L1446.11 348.088C1446.11 365.662 1446.55 377.167 1447.43 382.604C1448.31 388.04 1450.54 392.077 1454.11 394.713C1457.68 397.349 1464.57 398.667 1474.78 398.667L1482.36 398.667L1482.36 406.246L1378.57 406.246L1378.57 398.667L1385.49 398.667C1395.04 398.667 1401.66 397.459 1405.34 395.042C1409.02 392.626 1411.38 388.864 1412.42 383.757C1413.47 378.65 1413.99 366.76 1413.99 348.088L1413.99 238.528C1413.99 220.735 1413.47 209.257 1412.42 204.095C1411.38 198.933 1409.18 195.363 1405.83 193.386C1402.48 191.409 1395.15 190.421 1383.84 190.421L1379.88 190.421L1379.88 182.842L1552.22 182.842Z" fill="#cdd6f4" fill-rule="nonzero" opacity="1" stroke="none"/>
</g>
<g opacity="1">
<path d="M1858.9 366.21L1921.48 182.842L1974.18 182.842L1974.18 190.36L1967.85 190.36C1959.4 190.36 1953.87 191.259 1951.25 193.056C1948.63 194.854 1946.88 198.204 1946 203.107C1945.11 208.01 1944.67 219.668 1944.67 238.081L1944.67 346.762C1944.67 364.194 1945 375.607 1945.68 381C1946.35 386.393 1948.06 390.397 1950.81 393.012C1953.55 395.627 1958.81 396.934 1966.58 396.934L1974.18 396.934L1974.18 404.452L1892.09 404.452L1892.09 396.934L1898.17 396.934C1905.44 396.934 1910.48 395.736 1913.31 393.339C1916.14 390.942 1917.96 387.21 1918.76 382.144C1919.56 377.078 1919.96 365.284 1919.96 346.762L1919.96 205.722L1851.94 404.452L1845.98 404.452L1777.45 205.722L1777.45 335.485C1777.45 353.244 1777.87 365.338 1778.72 371.766C1779.56 378.194 1782.18 383.833 1786.57 388.681C1790.96 393.53 1797.13 396.281 1805.07 396.934L1805.07 404.452L1743.63 404.452L1743.63 396.934C1750.97 396.39 1756.95 393.802 1761.55 389.171C1766.15 384.541 1768.96 378.848 1769.98 372.093C1770.99 365.338 1771.5 352.808 1771.5 334.504L1771.5 238.081C1771.5 220.431 1771.09 209.045 1770.29 203.924C1769.49 198.804 1767.8 195.263 1765.22 193.302C1762.65 191.34 1757.01 190.36 1748.31 190.36L1743.63 190.36L1743.63 182.842L1795.94 182.842L1858.9 366.21Z" fill="#cdd6f4" fill-rule="nonzero" opacity="1" stroke="none"/>
</g>
</g>
</svg>
