<?xml version="1.0" encoding="UTF-8" standalone="no"?>
<svg xmlns="http://www.w3.org/2000/svg"
     xmlns:xlink="http://www.w3.org/1999/xlink"
     width="2480pt" height="1652pt" viewBox="0 0 2480 1652">
<title>small_mesh</title>
<desc>
Creator: GL2PS 1.4.3, (C) 1999-2020 C. Geuzaine
For: Gmsh
CreationDate: Wed Jan 31 12:53:14 2024
</desc>
<defs>
</defs>
<g>
<circle fill="#b2b2b2" cx="652" cy="1416" r="2"/>
<circle fill="#b2b2b2" cx="1832" cy="1416" r="2"/>
<circle fill="#b2b2b2" cx="1832" cy="236" r="2"/>
<circle fill="#b2b2b2" cx="652" cy="236" r="2"/>
<circle fill="#00ff84" cx="652" cy="1416" r="2"/>
<circle fill="#ffa000" cx="1832" cy="1416" r="2"/>
<circle fill="#00ffc0" cx="1832" cy="236" r="2"/>
<circle fill="#ffc800" cx="652" cy="236" r="2"/>
<text fill="#00ff84" x="947" y="1416" font-size="15" text-anchor="start" dy="0" font-family="Helvetica">5</text>
<text fill="#00ff84" x="1537" y="1416" font-size="15" text-anchor="start" dy="0" font-family="Helvetica">6</text>
<circle fill="#00ff84" cx="1242" cy="1416" r="2"/>
<text fill="#ffa000" x="1832" y="1121" font-size="15" text-anchor="start" dy="0" font-family="Helvetica">7</text>
<text fill="#ffa000" x="1832" y="531" font-size="15" text-anchor="start" dy="0" font-family="Helvetica">8</text>
<circle fill="#ffa000" cx="1832" cy="826" r="2"/>
<text fill="#00ffc0" x="1537" y="236" font-size="15" text-anchor="start" dy="0" font-family="Helvetica">9</text>
<text fill="#00ffc0" x="947" y="236" font-size="15" text-anchor="start" dy="0" font-family="Helvetica">10</text>
<circle fill="#00ffc0" cx="1242" cy="236" r="2"/>
<text fill="#ffc800" x="652" y="531" font-size="15" text-anchor="start" dy="0" font-family="Helvetica">11</text>
<text fill="#ffc800" x="652" y="1121" font-size="15" text-anchor="start" dy="0" font-family="Helvetica">12</text>
<circle fill="#ffc800" cx="652" cy="826" r="2"/>
<text fill="#00ff84" x="1693.51" y="572.792" font-size="15" text-anchor="start" dy="0" font-family="Helvetica">13</text>
<text fill="#00ff84" x="799.5" y="1071.83" font-size="15" text-anchor="start" dy="0" font-family="Helvetica">14</text>
<text fill="#00ff84" x="996.167" y="1268.5" font-size="15" text-anchor="start" dy="0" font-family="Helvetica">15</text>
<text fill="#00ff84" x="1496.85" y="376.125" font-size="15" text-anchor="start" dy="0" font-family="Helvetica">16</text>
<text fill="#00ff84" x="1524.71" y="1305.38" font-size="15" text-anchor="start" dy="0" font-family="Helvetica">17</text>
<text fill="#00ff84" x="1721.38" y="1108.71" font-size="15" text-anchor="start" dy="0" font-family="Helvetica">18</text>
<text fill="#00ff84" x="964.208" y="351.542" font-size="15" text-anchor="start" dy="0" font-family="Helvetica">19</text>
<text fill="#00ff84" x="767.542" y="548.208" font-size="15" text-anchor="start" dy="0" font-family="Helvetica">20</text>
<text fill="#00ff84" x="1582.89" y="855.5" font-size="15" text-anchor="start" dy="0" font-family="Helvetica">21</text>
<text fill="#00ff84" x="915.042" y="794.042" font-size="15" text-anchor="start" dy="0" font-family="Helvetica">22</text>
<text fill="#00ff84" x="1169.89" y="737.5" font-size="15" text-anchor="start" dy="0" font-family="Helvetica">23</text>
<text fill="#00ff84" x="1278.88" y="1157.88" font-size="15" text-anchor="start" dy="0" font-family="Helvetica">24</text>
<text fill="#00ff84" x="1337.06" y="904.667" font-size="15" text-anchor="start" dy="0" font-family="Helvetica">25</text>
<text fill="#00ff84" x="1219.06" y="491.667" font-size="15" text-anchor="start" dy="0" font-family="Helvetica">26</text>
<circle fill="#00ff84" cx="998.625" cy="582.625" r="2"/>
<circle fill="#00ff84" cx="1094.5" cy="973.5" r="2"/>
<circle fill="#00ff84" cx="1416.54" cy="656.375" r="2"/>
<circle fill="#00ff84" cx="1500.12" cy="1084.12" r="2"/>
<polyline fill="none" stroke="#06ff8e" stroke-width="1" stroke-linecap="butt" stroke-linejoin="miter" points="1832,826 1832,236 1416.54,656.375 1832,826"/>
<polyline fill="none" stroke="#06ff8e" stroke-width="1" stroke-linecap="butt" stroke-linejoin="miter" points="652,826 652,1416 1094.5,973.5 652,826"/>
<polyline fill="none" stroke="#06ff8e" stroke-width="1" stroke-linecap="butt" stroke-linejoin="miter" points="652,1416 1242,1416 1094.5,973.5 652,1416"/>
<polyline fill="none" stroke="#06ff8e" stroke-width="1" stroke-linecap="butt" stroke-linejoin="miter" points="1832,236 1242,236 1416.54,656.375 1832,236"/>
<polyline fill="none" stroke="#06ff8e" stroke-width="1" stroke-linecap="butt" stroke-linejoin="miter" points="1242,1416 1832,1416 1500.12,1084.12 1242,1416"/>
<polyline fill="none" stroke="#06ff8e" stroke-width="1" stroke-linecap="butt" stroke-linejoin="miter" points="1832,1416 1832,826 1500.12,1084.12 1832,1416"/>
<polyline fill="none" stroke="#06ff8e" stroke-width="1" stroke-linecap="butt" stroke-linejoin="miter" points="1242,236 652,236 998.625,582.625 1242,236"/>
<polyline fill="none" stroke="#06ff8e" stroke-width="1" stroke-linecap="butt" stroke-linejoin="miter" points="652,236 652,826 998.625,582.625 652,236"/>
<polyline fill="none" stroke="#06ff8e" stroke-width="1" stroke-linecap="butt" stroke-linejoin="miter" points="1832,826 1416.54,656.375 1500.12,1084.12 1832,826"/>
<polyline fill="none" stroke="#06ff8e" stroke-width="1" stroke-linecap="butt" stroke-linejoin="miter" points="998.625,582.625 652,826 1094.5,973.5 998.625,582.625 1094.5,973.5 1416.54,656.375 998.625,582.625"/>
<polyline fill="none" stroke="#06ff8e" stroke-width="1" stroke-linecap="butt" stroke-linejoin="miter" points="1094.5,973.5 1242,1416 1500.12,1084.12 1094.5,973.5"/>
<polyline fill="none" stroke="#06ff8e" stroke-width="1" stroke-linecap="butt" stroke-linejoin="miter" points="1416.54,656.375 1094.5,973.5 1500.12,1084.12 1416.54,656.375"/>
<polyline fill="none" stroke="#06ff8e" stroke-width="1" stroke-linecap="butt" stroke-linejoin="miter" points="1242,236 998.625,582.625 1416.54,656.375 1242,236"/>
<text fill="#00ff84" x="659" y="1409" font-size="15" text-anchor="start" dy="0" font-family="Helvetica">1</text>
<text fill="#ffa000" x="1839" y="1409" font-size="15" text-anchor="start" dy="0" font-family="Helvetica">2</text>
<text fill="#00ffc0" x="1839" y="229" font-size="15" text-anchor="start" dy="0" font-family="Helvetica">3</text>
<text fill="#ffc800" x="659" y="229" font-size="15" text-anchor="start" dy="0" font-family="Helvetica">4</text>
<text fill="#00ff84" x="1249" y="1409" font-size="15" text-anchor="start" dy="0" font-family="Helvetica">5</text>
<text fill="#ffa000" x="1839" y="819" font-size="15" text-anchor="start" dy="0" font-family="Helvetica">6</text>
<text fill="#00ffc0" x="1249" y="229" font-size="15" text-anchor="start" dy="0" font-family="Helvetica">7</text>
<text fill="#ffc800" x="659" y="819" font-size="15" text-anchor="start" dy="0" font-family="Helvetica">8</text>
<text fill="#00ff84" x="1005.62" y="575.625" font-size="15" text-anchor="start" dy="0" font-family="Helvetica">9</text>
<text fill="#00ff84" x="1101.5" y="966.5" font-size="15" text-anchor="start" dy="0" font-family="Helvetica">10</text>
<text fill="#00ff84" x="1423.54" y="649.375" font-size="15" text-anchor="start" dy="0" font-family="Helvetica">11</text>
<text fill="#00ff84" x="1507.12" y="1077.12" font-size="15" text-anchor="start" dy="0" font-family="Helvetica">12</text>
</g>
</svg>
