<?xml version="1.0" encoding="UTF-8" standalone="no"?>
<!-- Created with Inkscape (http://www.inkscape.org/) -->

<svg
   width="263.17221mm"
   height="51.947399mm"
   viewBox="0 0 263.17221 51.9474"
   version="1.1"
   id="svg84560"
   inkscape:version="1.1.2 (0a00cf5339, 2022-02-04)"
   sodipodi:docname="AbstractField1.svg"
   xmlns:inkscape="http://www.inkscape.org/namespaces/inkscape"
   xmlns:sodipodi="http://sodipodi.sourceforge.net/DTD/sodipodi-0.dtd"
   xmlns="http://www.w3.org/2000/svg"
   xmlns:svg="http://www.w3.org/2000/svg">
  <sodipodi:namedview
     id="namedview84562"
     pagecolor="#505050"
     bordercolor="#eeeeee"
     borderopacity="1"
     inkscape:pageshadow="0"
     inkscape:pageopacity="0"
     inkscape:pagecheckerboard="0"
     inkscape:document-units="mm"
     showgrid="true"
     inkscape:zoom="0.77682379"
     inkscape:cx="364.30398"
     inkscape:cy="348.21282"
     inkscape:window-width="1920"
     inkscape:window-height="1018"
     inkscape:window-x="1920"
     inkscape:window-y="25"
     inkscape:window-maximized="1"
     inkscape:current-layer="layer1">
    <inkscape:grid
       type="xygrid"
       id="grid122518"
       originx="27.078402"
       originy="-2.3210692" />
  </sodipodi:namedview>
  <defs
     id="defs84557">
    <marker
       style="overflow:visible"
       id="Arrow2Lend"
       refX="0"
       refY="0"
       orient="auto"
       inkscape:stockid="Arrow2Lend"
       inkscape:isstock="true">
      <path
         transform="matrix(-1.1,0,0,-1.1,-1.1,0)"
         d="M 8.7185878,4.0337352 -2.2072895,0.01601326 8.7185884,-4.0017078 c -1.7454984,2.3720609 -1.7354408,5.6174519 -6e-7,8.035443 z"
         style="fill:context-stroke;fill-rule:evenodd;stroke:context-stroke;stroke-width:0.625;stroke-linejoin:round"
         id="path3032" />
    </marker>
    <marker
       style="overflow:visible"
       id="Arrow1Lend"
       refX="0"
       refY="0"
       orient="auto"
       inkscape:stockid="Arrow1Lend"
       inkscape:isstock="true">
      <path
         transform="matrix(-0.8,0,0,-0.8,-10,0)"
         style="fill:context-stroke;fill-rule:evenodd;stroke:context-stroke;stroke-width:1pt"
         d="M 0,0 5,-5 -12.5,0 5,5 Z"
         id="path3014" />
    </marker>
  </defs>
  <g
     inkscape:label="Layer 1"
     inkscape:groupmode="layer"
     id="layer1"
     transform="translate(27.078404,-2.321069)">
    <g
       id="g18382"
       transform="matrix(0.18139129,0,0,0.18139129,210.59591,-1.0979283)">
      <g
         id="g4246"
         transform="matrix(0.40202045,0,0,0.40202045,8.9790818,13.027994)">
        <ellipse
           style="opacity:0.5;fill:#999999;stroke:#1a1a1a;stroke-width:2.66667;stroke-linecap:round"
           id="path1197"
           cx="103.2037"
           cy="208.65105"
           rx="0.41550413"
           ry="3.7049372" />
        <path
           d="m 124.05039,129.36038 19.7663,-9.91774 V 97.37598 l -19.7663,9.91914 z m 0,-24.43861 19.7663,-9.917746 v -22.06492 l -19.7663,9.917405 z M 98.66559,24.39058 78.78441,14.478732 59.01844,24.396439 78.89929,34.308023 Z M 76.75296,35.386398 56.87036,25.474511 37.10407,35.392218 56.98664,45.304143 Z M 100.97011,45.3114 120.7364,35.392218 100.841,25.474511 81.0747,35.392218 Z m -41.80839,1.076636 19.89573,9.919143 19.7663,-9.919143 -19.89574,-9.917405 z m 63.73728,-9.917405 -19.76629,9.917405 19.89538,9.917745 19.76629,-9.917745 z m -87.94751,0 -19.7663,9.917405 19.88258,9.911886 19.76629,-9.917442 z m 22.05662,10.99578 -19.76629,9.917707 19.89537,9.919181 19.7663,-9.919181 z m 23.21525,103.885869 19.7663,-9.91774 v -22.06492 l -19.7663,9.9174 z m 0,-24.43861 19.7663,-9.91779 V 94.931003 l -19.7663,9.917407 z m -1.1531,-68.45114 -19.7663,9.917367 19.89573,9.917783 19.76595,-9.917783 z m -65.03092,60.98011 19.88257,9.91185 V 107.2896 L 14.03934,97.377718 Z m 0,-24.438616 19.88257,9.911846 V 82.850953 L 14.03934,72.939104 Z m 0,-24.547692 19.88257,9.911925 V 58.302959 L 14.03934,48.391072 Z m 22.05801,59.982428 19.89538,9.9174 V 118.29128 L 36.09735,108.3735 Z m 0,-24.43862 19.89538,9.91881 V 93.852628 L 36.09735,83.934846 Z m 0,-24.54799 19.89538,9.917745 V 69.304634 L 36.09735,59.38723 Z m 22.05659,59.98239 19.89541,9.91774 v -22.06526 l -19.89541,-9.9174 z m 0,-24.43866 19.89541,9.91779 V 104.84841 L 58.15394,94.931003 Z m 0,-24.547648 19.89541,9.917408 V 80.300754 L 58.15394,70.382971 Z m 43.98243,47.907928 19.76595,-9.9174 V 108.3721 l -19.76595,9.91918 z m 0,-24.43861 19.76595,-9.91741 V 83.934846 l -19.76595,9.917782 z m -1.15174,-68.451139 -19.76629,9.917707 19.89538,9.917442 19.76629,-9.917442 z m 23.06576,11.168466 v 22.064882 l 19.7663,-9.917405 V 48.717094 Z M 80.22336,102.36564 99.98966,92.448232 V 70.382971 l -19.7663,9.917783 z m 21.91301,-10.669723 19.76595,-9.917783 v -22.06492 l -19.76595,9.917405 z"
           style="clip-rule:evenodd;fill:#db7093;fill-opacity:1;fill-rule:nonzero;stroke-width:0.346072;stroke-linejoin:round;stroke-miterlimit:2"
           id="path1597" />
        <path
           d="m 190.83995,233.72387 19.2039,-9.63556 v -21.43877 l -19.2039,9.63693 z m 0,-23.74325 19.2039,-9.63557 v -21.43706 l -19.2039,9.63522 z m -24.66249,-78.23974 -19.31547,-9.62982 -19.20355,9.63553 19.31516,9.62952 z m -21.28912,10.68291 -19.31685,-9.62982 -19.20387,9.63553 19.31683,9.62986 z m 23.52807,9.64263 19.20388,-9.63692 -19.32931,-9.63553 -19.20387,9.63553 z m -40.61876,1.04599 19.32961,9.63689 19.20386,-9.63689 -19.32961,-9.63523 z m 61.92372,-9.63523 -19.20389,9.63523 19.32929,9.63556 19.20386,-9.63556 z m -85.44507,0 -19.20387,9.63523 19.31684,9.62982 19.20386,-9.63523 z m 21.42901,10.68291 -19.20386,9.63553 19.32927,9.63693 19.20387,-9.63693 z M 148.26,255.09 l 19.20386,-9.63553 v -21.4371 L 148.26,233.65259 Z m 0,-23.74326 19.20386,-9.63553 v -21.4371 L 148.26,209.90934 Z m -1.1203,-66.5034 -19.20386,9.63519 19.32962,9.63557 19.20352,-9.63557 z m -63.18051,59.24497 19.31682,9.62982 v -21.43707 l -19.31682,-9.62982 z m 0,-23.74326 19.31682,9.62986 v -21.4371 l -19.31682,-9.62982 z m 0,-23.84916 19.31682,9.62986 v -21.4374 l -19.31682,-9.62986 z m 21.43036,58.27567 19.32927,9.63519 v -21.43707 l -19.32927,-9.63556 z m 0,-23.74326 19.32927,9.63655 v -21.43843 l -19.32927,-9.63556 z m 0,-23.8495 19.32927,9.63557 v -21.43744 l -19.32927,-9.63519 z m 21.42899,58.27567 19.3293,9.63553 v -21.43741 l -19.3293,-9.63522 z m 0,-23.74326 19.3293,9.63553 v -21.4374 l -19.3293,-9.63523 z m 0,-23.84919 19.3293,9.63522 v -21.43706 l -19.3293,-9.63557 z m 42.73095,46.54473 19.20352,-9.63519 v -21.43877 l -19.20352,9.63689 z m 0,-23.74322 19.20352,-9.63523 v -21.43744 l -19.20352,9.63556 z m -1.11897,-66.50344 -19.20386,9.63553 19.32927,9.63523 19.20386,-9.63523 z m 22.40943,10.85069 v 21.43706 l 19.2039,-9.63522 V 155.37521 Z M 148.26,207.49724 167.46386,197.86202 V 176.42461 L 148.26,186.06018 Z m 21.28949,-10.36615 19.20352,-9.63556 v -21.43711 l -19.20352,9.63523 z"
           style="clip-rule:evenodd;fill:#3cb371;fill-opacity:1;fill-rule:nonzero;stroke-width:0.336226;stroke-linejoin:round;stroke-miterlimit:2"
           id="path1599" />
        <path
           d="m 255.71494,130.34166 19.38667,-9.72729 V 98.971507 l -19.38667,9.728653 z m 0,-23.96931 19.38667,-9.727255 V 75.003898 l -19.38667,9.726954 z m -24.8973,-78.984566 -19.49937,-9.721512 -19.38633,9.727294 19.49903,9.721172 z m -21.49179,10.784617 -19.50074,-9.721512 -19.38665,9.727257 19.50068,9.72155 z m 23.75206,9.734438 19.38668,-9.728693 -19.51333,-9.727257 -19.38667,9.727257 z m -41.00545,1.055962 19.51362,9.728618 19.38668,-9.728618 -19.51363,-9.726954 z m 62.5132,-9.726954 -19.38667,9.726954 19.51328,9.727257 19.38667,-9.727257 z m -86.25843,0 -19.3867,9.726954 19.50073,9.721474 19.38664,-9.726954 z m 21.63296,10.784579 -19.38663,9.727295 19.51325,9.728655 19.38667,-9.728655 z m 22.76939,101.890774 19.38671,-9.72726 v -21.6412 l -19.38671,9.72696 z m 0,-23.96931 19.38671,-9.72726 V 96.573473 l -19.38671,9.726957 z m -1.13095,-67.136506 -19.38667,9.726917 19.51363,9.727294 19.38633,-9.727294 z m -63.78194,59.808986 19.50072,9.72151 v -21.64116 l -19.50072,-9.721512 z m 0,-23.969275 19.50072,9.721515 V 84.725447 l -19.50072,-9.721549 z m 0,-24.076234 19.50072,9.721512 V 60.648911 l -19.50072,-9.721549 z m 21.63439,58.830459 19.51325,9.72692 v -21.64112 l -19.51325,-9.7273 z m 0,-23.96927 19.51325,9.72828 V 95.51581 l -19.51325,-9.727295 z m 0,-24.076571 19.51325,9.727294 V 71.439274 l -19.51325,-9.726955 z m 21.63296,58.830461 19.51328,9.72726 v -21.6415 l -19.51328,-9.72696 z m 0,-23.96931 19.51328,9.72726 v -21.64146 l -19.51328,-9.726957 z m 0,-24.076231 19.51328,9.726951 V 82.224231 l -19.51328,-9.727332 z m 43.13775,46.987841 19.38633,-9.72692 v -21.64289 l -19.38633,9.72869 z m 0,-23.96927 19.38633,-9.72692 V 85.788515 l -19.38633,9.727295 z m -1.12963,-67.136544 -19.38671,9.727295 19.51329,9.726917 19.38671,-9.726917 z m 22.62278,10.953979 v 21.641159 l 19.38667,-9.726955 V 51.24711 Z m -42.98536,42.890945 19.38671,-9.726951 v -21.6415 l -19.38671,9.727332 z m 21.49221,-10.464829 19.38633,-9.727294 V 62.03203 l -19.38633,9.726954 z"
           style="clip-rule:evenodd;fill:#1e90ff;fill-opacity:1;fill-rule:nonzero;stroke-width:0.339427;stroke-linejoin:round;stroke-miterlimit:2"
           id="path1601" />
      </g>
      <g
         id="g18371"
         transform="translate(9.6340925,73.87099)">
        <rect
           style="opacity:0.5;fill:#1a1a1a;stroke-width:6.33513;stroke-linecap:round;stroke-opacity:0"
           id="rect17768"
           width="106.03571"
           height="30.254"
           x="9.2122574"
           y="48.446556"
           rx="14.586332"
           ry="14.586332" />
        <text
           xml:space="preserve"
           style="font-size:16px;line-height:1.25;font-family:'Times New Roman';-inkscape-font-specification:'Times New Roman, Normal';fill:#ffffff"
           x="27.574409"
           y="69.810791"
           id="text6672"><tspan
             sodipodi:role="line"
             id="tspan6670"
             x="27.574409"
             y="69.810791"
             style="font-style:normal;font-variant:normal;font-weight:normal;font-stretch:normal;font-size:16px;font-family:Impact;-inkscape-font-specification:Impact;fill:#ffffff">E A S I F E M</tspan></text>
      </g>
    </g>
    <rect
       style="fill:none;stroke:#ff5555;stroke-width:1.20181;stroke-linecap:round;stroke-opacity:0.988282"
       id="rect84678"
       width="84.723831"
       height="13.689556"
       x="68.734505"
       y="5.2916665"
       rx="2.6458333"
       ry="2.6458333" />
    <text
       xml:space="preserve"
       style="font-style:normal;font-variant:normal;font-weight:normal;font-stretch:normal;font-size:5.64444px;line-height:1.25;font-family:'Noto Sans';-inkscape-font-specification:'Noto Sans, Normal';font-variant-ligatures:normal;font-variant-caps:normal;font-variant-numeric:normal;font-variant-east-asian:normal;fill:#ff5555;stroke-width:0.264583"
       x="91.11541"
       y="14.322341"
       id="text86518"><tspan
         sodipodi:role="line"
         id="tspan86516"
         style="font-style:normal;font-variant:normal;font-weight:normal;font-stretch:normal;font-size:5.64444px;font-family:'Noto Sans';-inkscape-font-specification:'Noto Sans, Normal';font-variant-ligatures:normal;font-variant-caps:normal;font-variant-numeric:normal;font-variant-east-asian:normal;fill:#ff5555;stroke-width:0.264583"
         x="91.11541"
         y="14.322341">AbstractField_</tspan></text>
    <rect
       style="fill:none;stroke:#008000;stroke-width:1.24014;stroke-linecap:round;stroke-opacity:0.998813"
       id="rect84678-0"
       width="74.604286"
       height="16.553972"
       x="-26.458334"
       y="37.071846"
       rx="2.6458335"
       ry="2.6458333" />
    <text
       xml:space="preserve"
       style="font-style:normal;font-variant:normal;font-weight:normal;font-stretch:normal;font-size:5.64444px;line-height:1.25;font-family:'Noto Sans';-inkscape-font-specification:'Noto Sans, Normal';font-variant-ligatures:normal;font-variant-caps:normal;font-variant-numeric:normal;font-variant-east-asian:normal;fill:#008000;stroke-width:0.264583"
       x="-21.18544"
       y="47.799648"
       id="text86518-7"><tspan
         sodipodi:role="line"
         id="tspan86516-2"
         style="font-style:normal;font-variant:normal;font-weight:normal;font-stretch:normal;font-size:5.64444px;font-family:'Noto Sans';-inkscape-font-specification:'Noto Sans, Normal';font-variant-ligatures:normal;font-variant-caps:normal;font-variant-numeric:normal;font-variant-east-asian:normal;fill:#008000;stroke-width:0.264583"
         x="-21.18544"
         y="47.799648">AbstractNodeField_</tspan></text>
    <rect
       style="fill:none;stroke:#008000;stroke-width:1.28531;stroke-linecap:round;stroke-opacity:1"
       id="rect84678-0-4"
       width="79.992859"
       height="16.584145"
       x="62.882145"
       y="37.041668"
       rx="2.6458335"
       ry="2.6458333" />
    <text
       xml:space="preserve"
       style="font-style:normal;font-variant:normal;font-weight:normal;font-stretch:normal;font-size:5.64444px;line-height:1.25;font-family:'Noto Sans';-inkscape-font-specification:'Noto Sans, Normal';font-variant-ligatures:normal;font-variant-caps:normal;font-variant-numeric:normal;font-variant-east-asian:normal;fill:#008000;stroke-width:0.264583"
       x="70.002563"
       y="47.769466"
       id="text86518-7-6"><tspan
         sodipodi:role="line"
         id="tspan86516-2-4"
         style="font-style:normal;font-variant:normal;font-weight:normal;font-stretch:normal;font-size:5.64444px;font-family:'Noto Sans';-inkscape-font-specification:'Noto Sans, Normal';font-variant-ligatures:normal;font-variant-caps:normal;font-variant-numeric:normal;font-variant-east-asian:normal;fill:#008000;stroke-width:0.264583"
         x="70.002563"
         y="47.769466">AbstractElementField_</tspan></text>
    <rect
       style="fill:none;stroke:#008000;stroke-width:1.22939;stroke-linecap:round;stroke-opacity:1"
       id="rect84678-0-4-3"
       width="76.451813"
       height="15.875003"
       x="159.02731"
       y="37.750816"
       rx="2.6458335"
       ry="2.6458333" />
    <text
       xml:space="preserve"
       style="font-style:normal;font-variant:normal;font-weight:normal;font-stretch:normal;font-size:5.64444px;line-height:1.25;font-family:'Noto Sans';-inkscape-font-specification:'Noto Sans, Normal';font-variant-ligatures:normal;font-variant-caps:normal;font-variant-numeric:normal;font-variant-east-asian:normal;fill:#008000;stroke-width:0.264583"
       x="166.14774"
       y="48.018223"
       id="text86518-7-6-1"><tspan
         sodipodi:role="line"
         id="tspan86516-2-4-8"
         style="font-style:normal;font-variant:normal;font-weight:normal;font-stretch:normal;font-size:5.64444px;font-family:'Noto Sans';-inkscape-font-specification:'Noto Sans, Normal';font-variant-ligatures:normal;font-variant-caps:normal;font-variant-numeric:normal;font-variant-east-asian:normal;fill:#008000;stroke-width:0.264583"
         x="166.14774"
         y="48.018223">AbstractMatrixField_</tspan></text>
  </g>
</svg>
