<?xml version="1.0" encoding="UTF-8" standalone="no"?>
<!DOCTYPE svg PUBLIC "-//W3C//DTD SVG 1.1//EN" "http://www.w3.org/Graphics/SVG/1.1/DTD/svg11.dtd">
<!-- Created with Vectornator (http://vectornator.io/) -->
<svg height="500.0pt" stroke-miterlimit="10" style="fill-rule:nonzero;clip-rule:evenodd;stroke-linecap:round;stroke-linejoin:round;" version="1.1" viewBox="0 0 2000 500" width="1999.9999999999998pt" xml:space="preserve" xmlns="http://www.w3.org/2000/svg" xmlns:xlink="http://www.w3.org/1999/xlink">
<defs/>
<g id="layer1">
<path d="M293.363 415.743L323.75 400.496L323.75 366.575L293.363 381.824L293.363 415.743ZM293.363 378.176L323.75 362.93L323.75 329.01L293.363 344.255L293.363 378.176ZM254.342 254.379L223.779 239.142L193.394 254.388L223.956 269.624L254.342 254.379ZM220.657 271.282L190.092 256.045L159.706 271.291L190.271 286.528L220.657 271.282ZM257.884 286.539L288.27 271.291L257.685 256.045L227.299 271.291L257.884 286.539ZM193.614 288.193L224.198 303.442L254.585 288.193L223.999 272.949L193.614 288.193ZM291.594 272.949L261.207 288.193L291.793 303.44L322.178 288.193L291.594 272.949ZM156.397 272.949L126.011 288.193L156.576 303.431L186.962 288.187L156.397 272.949ZM190.304 289.852L159.918 305.098L190.502 320.347L220.887 305.098L190.304 289.852ZM225.991 449.551L256.376 434.305L256.376 400.386L225.991 415.63L225.991 449.551ZM225.991 411.983L256.376 396.736L256.376 362.817L225.991 378.063L225.991 411.983ZM224.218 306.755L193.833 322.002L224.417 337.248L254.802 322.002L224.218 306.755ZM124.25 400.496L154.814 415.734L154.814 381.815L124.25 366.577L124.25 400.496ZM124.25 362.93L154.814 378.165L154.814 344.246L124.25 329.01L124.25 362.93ZM124.25 325.194L154.814 340.431L154.814 306.51L124.25 291.274L124.25 325.194ZM158.158 417.402L188.742 432.646L188.742 398.727L158.158 383.481L158.158 417.402ZM158.158 379.833L188.742 395.081L188.742 361.16L158.158 345.914L158.158 379.833ZM158.158 342.097L188.742 357.343L188.742 323.422L158.158 308.177L158.158 342.097ZM192.065 434.305L222.649 449.551L222.649 415.63L192.065 400.386L192.065 434.305ZM192.065 396.736L222.649 411.983L222.649 378.063L192.065 362.817L192.065 396.736ZM192.065 359L222.649 374.246L222.649 340.327L192.065 325.081L192.065 359ZM259.676 432.646L290.062 417.402L290.062 383.478L259.676 398.727L259.676 432.646ZM259.676 395.079L290.062 379.833L290.062 345.914L259.676 361.16L259.676 395.079ZM257.907 289.852L227.52 305.098L258.105 320.343L288.491 305.098L257.907 289.852ZM293.363 307.02L293.363 340.94L323.75 325.695L323.75 291.774L293.363 307.02ZM225.991 374.246L256.376 359L256.376 325.081L225.991 340.327L225.991 374.246ZM259.676 357.845L290.061 342.598L290.061 308.679L259.676 323.923L259.676 357.845Z" fill="#75b3a8" fill-rule="nonzero" opacity="1" stroke="none"/>
<path d="M193.614 253.052L224 237.806L224 203.884L193.614 219.132L193.614 253.052ZM193.614 215.484L224 200.238L224 166.318L193.614 181.564L193.614 215.484ZM154.592 91.6875L124.029 76.4504L93.6436 91.6962L124.205 106.933L154.592 91.6875ZM120.906 108.591L90.3417 93.3536L59.9564 108.6L90.5208 123.837L120.906 108.591ZM158.134 123.848L188.52 108.6L157.935 93.3536L127.55 108.6L158.134 123.848ZM93.8634 125.503L124.449 140.751L154.835 125.503L124.25 110.257L93.8634 125.503ZM191.844 110.257L161.458 125.503L192.042 140.749L222.428 125.503L191.844 110.257ZM56.6471 110.257L26.2618 125.503L56.8262 140.74L87.2116 125.495L56.6471 110.257ZM90.5535 127.161L60.1682 142.407L90.7518 157.655L121.138 142.407L90.5535 127.161ZM126.241 286.858L156.627 271.613L156.627 237.694L126.241 252.939L126.241 286.858ZM126.241 249.291L156.627 234.045L156.627 200.126L126.241 215.371L126.241 249.291ZM124.469 144.064L94.0826 159.31L124.667 174.556L155.052 159.31L124.469 144.064ZM24.5 237.806L55.0644 253.043L55.0644 219.124L24.5 203.887L24.5 237.806ZM24.5 200.238L55.0644 215.475L55.0644 181.555L24.5 166.318L24.5 200.238ZM24.5 162.502L55.0644 177.739L55.0644 143.819L24.5 128.582L24.5 162.502ZM58.4083 254.71L88.9925 269.956L88.9925 236.036L58.4083 220.79L58.4083 254.71ZM58.4083 217.142L88.9925 232.389L88.9925 198.468L58.4083 183.222L58.4083 217.142ZM58.4083 179.405L88.9925 194.651L88.9925 160.732L58.4083 145.486L58.4083 179.405ZM92.3153 271.613L122.899 286.858L122.899 252.939L92.3153 237.694L92.3153 271.613ZM92.3153 234.045L122.899 249.291L122.899 215.371L92.3153 200.126L92.3153 234.045ZM92.3153 196.309L122.899 211.554L122.899 177.635L92.3153 162.389L92.3153 196.309ZM159.927 269.956L190.312 254.71L190.312 220.788L159.927 236.036L159.927 269.956ZM159.927 232.387L190.312 217.142L190.312 183.222L159.927 198.468L159.927 232.387ZM158.156 127.161L127.771 142.407L158.355 157.652L188.741 142.407L158.156 127.161ZM193.614 144.329L193.614 178.249L224 163.003L224 129.084L193.614 144.329ZM126.241 211.554L156.627 196.309L156.627 162.389L126.241 177.635L126.241 211.554ZM159.927 195.152L190.312 179.907L190.312 145.987L159.927 161.232L159.927 195.152Z" fill="#b37a83" fill-rule="nonzero" opacity="1" stroke="none"/>
<path d="M393.114 253.051L423.5 237.805L423.5 203.882L393.114 219.131L393.114 253.051ZM393.114 215.482L423.5 200.236L423.5 166.317L393.114 181.562L393.114 215.482ZM354.092 91.6857L323.53 76.4485L293.145 91.6949L323.706 106.931L354.092 91.6857ZM320.407 108.589L289.843 93.3517L259.456 108.598L290.021 123.835L320.407 108.589ZM357.635 123.846L388.02 108.598L357.435 93.3517L327.051 108.598L357.635 123.846ZM293.365 125.501L323.949 140.75L354.335 125.501L323.751 110.256L293.365 125.501ZM391.344 110.256L360.959 125.501L391.544 140.747L421.928 125.501L391.344 110.256ZM256.147 110.256L225.762 125.501L256.325 140.738L286.712 125.493L256.147 110.256ZM290.054 127.159L259.669 142.405L290.253 157.653L320.638 142.405L290.054 127.159ZM325.742 286.858L356.126 271.612L356.126 237.692L325.742 252.938L325.742 286.858ZM325.742 249.289L356.126 234.043L356.126 200.124L325.742 215.369L325.742 249.289ZM323.968 144.063L293.584 159.308L324.168 174.555L354.552 159.308L323.968 144.063ZM224 237.805L254.564 253.041L254.564 219.123L224 203.885L224 237.805ZM224 200.236L254.564 215.473L254.564 181.554L224 166.317L224 200.236ZM224 162.5L254.564 177.737L254.564 143.818L224 128.581L224 162.5ZM257.908 254.708L288.492 269.954L288.492 236.034L257.908 220.789L257.908 254.708ZM257.908 217.14L288.492 232.388L288.492 198.466L257.908 183.22L257.908 217.14ZM257.908 179.403L288.492 194.65L288.492 160.73L257.908 145.485L257.908 179.403ZM291.817 271.612L322.401 286.858L322.401 252.938L291.817 237.692L291.817 271.612ZM291.817 234.043L322.401 249.289L322.401 215.369L291.817 200.124L291.817 234.043ZM291.817 196.307L322.401 211.553L322.401 177.634L291.817 162.387L291.817 196.307ZM359.427 269.954L389.814 254.708L389.814 220.786L359.427 236.034L359.427 269.954ZM359.427 232.385L389.814 217.14L389.814 183.22L359.427 198.466L359.427 232.385ZM357.658 127.159L327.271 142.405L357.855 157.651L388.242 142.405L357.658 127.159ZM393.114 144.327L393.114 178.247L423.5 163.002L423.5 129.082L393.114 144.327ZM325.742 211.553L356.126 196.307L356.126 162.387L325.742 177.634L325.742 211.553ZM359.427 195.151L389.814 179.905L389.814 145.985L359.427 161.231L359.427 195.151Z" fill="#6281b3" fill-rule="nonzero" opacity="1" stroke="none"/>
<g opacity="1">
<path d="M694.195 304.325L704.616 304.325L698.32 395.947L454.5 395.947L454.5 385.96L460.579 385.96C475.198 385.96 484.643 384.006 488.913 380.098C493.183 376.19 495.897 371.232 497.055 365.226C498.212 359.219 498.791 343.912 498.791 319.306L498.791 174.924C498.791 152.489 498.176 137.725 496.946 130.633C495.716 123.54 492.893 118.583 488.478 115.76C484.064 112.938 474.764 111.527 460.579 111.527L460.579 101.539L670.964 101.539L677.911 174.924L667.707 174.924C663.075 154.371 657.394 139.788 650.663 131.176C643.933 122.563 635.936 117.136 626.672 114.892C617.409 112.649 602.5 111.527 581.946 111.527L541.129 111.527L541.129 235.065L572.393 235.065C586.723 235.065 596.747 233.835 602.464 231.374C608.181 228.914 611.945 225.186 613.754 220.193C615.563 215.199 616.468 205.465 616.468 190.991L626.672 190.991L626.672 291.732L616.468 291.732C616.468 275.376 615.093 264.412 612.343 258.839C609.592 253.267 605.576 249.648 600.293 247.984C595.01 246.319 586.072 245.487 573.479 245.487L541.129 245.487L541.129 315.181C541.129 350.064 543.372 370.581 547.859 376.733C552.346 382.884 564.433 385.96 584.118 385.96L606.046 385.96C621.534 385.96 634.271 383.97 644.258 379.989C654.246 376.009 663.763 367.831 672.809 355.455C681.856 343.08 688.984 326.036 694.195 304.325Z" fill="#11111b" fill-rule="nonzero" opacity="1" stroke="none"/>
</g>
<g opacity="1">
<path d="M1735.73 336.562L1743.63 336.562L1738.85 406.015L1554.03 406.015L1554.03 398.445L1558.64 398.445C1569.72 398.445 1576.88 396.963 1580.11 394.001C1583.35 391.038 1585.41 387.28 1586.29 382.727C1587.16 378.174 1587.6 366.57 1587.6 347.918L1587.6 238.471C1587.6 221.464 1587.14 210.272 1586.2 204.896C1585.27 199.52 1583.13 195.762 1579.78 193.622C1576.44 191.483 1569.39 190.413 1558.64 190.413L1558.64 182.842L1718.12 182.842L1723.38 238.471L1715.65 238.471C1712.14 222.89 1707.83 211.836 1702.73 205.308C1697.63 198.779 1691.56 194.665 1684.54 192.964C1677.52 191.263 1666.22 190.413 1650.64 190.413L1619.7 190.413L1619.7 284.06L1643.4 284.06C1654.26 284.06 1661.86 283.127 1666.19 281.262C1670.52 279.397 1673.38 276.572 1674.75 272.786C1676.12 269.001 1676.81 261.622 1676.81 250.65L1684.54 250.65L1684.54 327.016L1676.81 327.016C1676.81 314.617 1675.76 306.306 1673.68 302.082C1671.59 297.857 1668.55 295.114 1664.54 293.853C1660.54 292.591 1653.76 291.96 1644.22 291.96L1619.7 291.96L1619.7 344.791C1619.7 371.234 1621.4 386.787 1624.8 391.45C1628.2 396.113 1637.36 398.445 1652.28 398.445L1668.91 398.445C1680.65 398.445 1690.3 396.936 1697.87 393.919C1705.44 390.901 1712.66 384.702 1719.51 375.321C1726.37 365.94 1731.78 353.02 1735.73 336.562Z" fill="#11111b" fill-rule="nonzero" opacity="1" stroke="none"/>
</g>
<g opacity="1">
<path d="M876.495 297.778L773.332 297.778L766.321 315.005C755.905 339.978 750.697 356.27 750.697 363.882C750.697 372.028 753.468 378.204 759.01 382.411C764.552 386.618 771.663 388.721 780.343 388.721L780.343 397.935L699.616 397.935L699.616 388.721C711.635 386.851 720.583 382.611 726.459 376.001C732.335 369.391 739.412 355.469 747.692 334.235C748.36 332.232 751.565 324.487 757.307 310.999L836.231 122.502L844.044 122.502L934.786 338.242L947.206 366.686C950.01 373.096 953.783 378.138 958.524 381.81C963.264 385.483 970.376 387.786 979.857 388.721L979.857 397.935L873.089 397.935L873.089 388.721C886.177 388.721 895.024 387.753 899.631 385.816C904.238 383.88 906.542 380.041 906.542 374.298C906.542 371.36 903.47 362.613 897.327 348.057L876.495 297.778ZM873.089 288.764L825.014 172.982L777.138 288.764L873.089 288.764Z" fill="#11111b" fill-rule="nonzero" opacity="1" stroke="none"/>
</g>
<g opacity="1">
<path d="M991.857 398.375L991.857 310.386L1001.95 310.386C1013.38 367.7 1040.49 396.357 1083.28 396.357C1102.52 396.357 1117.42 390.874 1127.98 379.91C1138.54 368.945 1143.82 356.668 1143.82 343.079C1143.82 329.356 1139.18 317.853 1129.89 308.57C1120.61 299.421 1103.66 289.6 1079.04 279.106C1057.11 269.688 1040.56 261.448 1029.39 254.384C1018.23 247.321 1009.52 238.139 1003.26 226.838C997.003 215.536 993.875 203.495 993.875 190.714C993.875 171.206 1000.64 154.96 1014.16 141.977C1027.68 128.994 1044.8 122.502 1065.52 122.502C1077.09 122.502 1087.99 124.386 1098.21 128.153C1108.44 131.92 1118.93 139.723 1129.69 151.563C1135.88 144.163 1139.38 136.158 1140.19 127.548L1149.07 127.548L1149.07 199.19L1140.19 199.19C1135.07 178.336 1126.03 161.922 1113.04 149.948C1100.06 137.974 1085.03 131.987 1067.94 131.987C1051.66 131.987 1039.72 136.394 1032.12 145.206C1024.52 154.018 1020.72 163.671 1020.72 174.165C1020.72 186.812 1025.49 197.508 1035.04 206.253C1044.46 215.133 1061.48 225.088 1086.1 236.121C1109.65 246.615 1126.77 255.057 1137.46 261.448C1148.16 267.838 1156.73 276.684 1163.19 287.986C1169.65 299.287 1172.88 312.337 1172.88 327.136C1172.88 350.546 1165.08 369.584 1149.47 384.248C1133.86 398.913 1113.01 406.246 1086.91 406.246C1056.91 406.246 1031.88 394.742 1011.84 371.736C1007.4 378.06 1004.1 386.939 1001.95 398.375L991.857 398.375Z" fill="#11111b" fill-rule="nonzero" opacity="1" stroke="none"/>
</g>
<g opacity="1">
<path d="M1198 141.886L1198 132.603L1334.29 132.603L1334.29 141.886L1327.91 141.886C1313.26 141.886 1303.66 142.996 1299.11 145.216C1294.57 147.435 1291.53 151.572 1289.99 157.626C1288.45 163.68 1287.68 178.076 1287.68 200.812L1287.68 335.01C1287.68 356.535 1288.23 370.628 1289.33 377.287C1290.43 383.947 1293.36 388.891 1298.13 392.119C1302.89 395.348 1312.01 396.963 1325.49 396.963L1334.29 396.963L1334.29 406.246L1198 406.246L1198 396.963L1206.79 396.963C1219.54 396.963 1228.37 395.483 1233.28 392.523C1238.19 389.563 1241.3 384.956 1242.62 378.7C1243.94 372.444 1244.6 357.881 1244.6 335.01L1244.6 200.812C1244.6 179.017 1243.94 164.958 1242.62 158.635C1241.3 152.312 1238.37 147.94 1233.83 145.518C1229.28 143.097 1219.47 141.886 1204.37 141.886L1198 141.886Z" fill="#11111b" fill-rule="nonzero" opacity="1" stroke="none"/>
</g>
<g opacity="1">
<path d="M1552.22 182.842L1554.03 238.528L1546.28 238.528C1544.75 226.337 1541.31 216.259 1535.99 208.296C1530.66 200.333 1525.09 195.363 1519.26 193.386C1513.44 191.409 1503.61 190.421 1489.77 190.421L1446.11 190.421L1446.11 285.153L1467.04 285.153C1480.55 285.153 1489.53 282.874 1493.98 278.316C1498.42 273.758 1500.65 264.614 1500.65 250.885L1508.89 250.885L1508.89 329.636L1500.65 329.636C1500.65 320.08 1499.69 312.529 1497.76 306.983C1495.84 301.436 1492.99 297.647 1489.2 295.615C1485.41 293.583 1478.02 292.567 1467.04 292.567L1446.11 292.567L1446.11 348.088C1446.11 365.662 1446.55 377.167 1447.43 382.604C1448.31 388.04 1450.54 392.077 1454.11 394.713C1457.68 397.349 1464.57 398.667 1474.78 398.667L1482.36 398.667L1482.36 406.246L1378.57 406.246L1378.57 398.667L1385.49 398.667C1395.04 398.667 1401.66 397.459 1405.34 395.042C1409.02 392.626 1411.38 388.864 1412.42 383.757C1413.47 378.65 1413.99 366.76 1413.99 348.088L1413.99 238.528C1413.99 220.735 1413.47 209.257 1412.42 204.095C1411.38 198.933 1409.18 195.363 1405.83 193.386C1402.48 191.409 1395.15 190.421 1383.84 190.421L1379.88 190.421L1379.88 182.842L1552.22 182.842Z" fill="#11111b" fill-rule="nonzero" opacity="1" stroke="none"/>
</g>
<g opacity="1">
<path d="M1858.9 366.21L1921.48 182.842L1974.18 182.842L1974.18 190.36L1967.85 190.36C1959.4 190.36 1953.87 191.259 1951.25 193.056C1948.63 194.854 1946.88 198.204 1946 203.107C1945.11 208.01 1944.67 219.668 1944.67 238.081L1944.67 346.762C1944.67 364.194 1945 375.607 1945.68 381C1946.35 386.393 1948.06 390.397 1950.81 393.012C1953.55 395.627 1958.81 396.934 1966.58 396.934L1974.18 396.934L1974.18 404.452L1892.09 404.452L1892.09 396.934L1898.17 396.934C1905.44 396.934 1910.48 395.736 1913.31 393.339C1916.14 390.942 1917.96 387.21 1918.76 382.144C1919.56 377.078 1919.96 365.284 1919.96 346.762L1919.96 205.722L1851.94 404.452L1845.98 404.452L1777.45 205.722L1777.45 335.485C1777.45 353.244 1777.87 365.338 1778.72 371.766C1779.56 378.194 1782.18 383.833 1786.57 388.681C1790.96 393.53 1797.13 396.281 1805.07 396.934L1805.07 404.452L1743.63 404.452L1743.63 396.934C1750.97 396.39 1756.95 393.802 1761.55 389.171C1766.15 384.541 1768.96 378.848 1769.98 372.093C1770.99 365.338 1771.5 352.808 1771.5 334.504L1771.5 238.081C1771.5 220.431 1771.09 209.045 1770.29 203.924C1769.49 198.804 1767.8 195.263 1765.22 193.302C1762.65 191.34 1757.01 190.36 1748.31 190.36L1743.63 190.36L1743.63 182.842L1795.94 182.842L1858.9 366.21Z" fill="#11111b" fill-rule="nonzero" opacity="1" stroke="none"/>
</g>
</g>
</svg>
